# xmcd CD database file
#
# Track frame offsets:
#	183
#	8188
#	21000
#	34298
#	45683
#	54938
#	66970
#	78380
#	89783
#	98243
#	108885
#	122060
#	133750
#	146740
#	159545
#	172003
#	178973
#	190678
#	206153
#	218450
#
# Disc length: 2987 seconds
#
# Revision: 0
# Processed by: cddbd v1.4PL0 Copyright (c) Steve Scherf et al.
# Submitted via: CDex 1.50
#
DISCID=200ba914
DTITLE=Various Artist - Western Hill Country
DYEAR=1900
DGENRE=Country
TTITLE0=Hill Country
TTITLE1=Blue Mountain Sweetheart
TTITLE2=When The Moon Comes Over Sun Valley
TTITLE3=Whoopee Ti Yi Yo
TTITLE4=Whistling Rufus
TTITLE5=Tennessee Saturday Night
TTITLE6=Dragging The Bow
TTITLE7=Twin Guitar Special
TTITLE8=Will You Miss Me When I'm Gone?
TTITLE9=Bob Wills Boogie
TTITLE10=No Depresion In Heaven
TTITLE11=My Native Home
TTITLE12=Jealous Hearted Me
TTITLE13=A Distant Land To Roam
TTITLE14=I'm Working On A Building
TTITLE15=Steel Guitar Rag
TTITLE16=I'm Movin' On
TTITLE17=Handcuffed To Love
TTITLE18=I'll Never Let You Go, Little Darlin'
TTITLE19=Draggin' The Bow
EXTD=
EXTT0=
EXTT1=
EXTT2=
EXTT3=
EXTT4=
EXTT5=
EXTT6=
EXTT7=
EXTT8=
EXTT9=
EXTT10=
EXTT11=
EXTT12=
EXTT13=
EXTT14=
EXTT15=
EXTT16=
EXTT17=
EXTT18=
EXTT19=
PLAYORDER=
